<?xml version="1.0" encoding="UTF-8"?><svg id="Layer_1" xmlns="http://www.w3.org/2000/svg" viewBox="0 0 2521.39 700"><defs><style>.cls-1{fill:#16215b;}.cls-1,.cls-2{stroke-width:0px;}.cls-2{fill:#ff6e29;}</style></defs><polygon class="cls-1" points="578.99 5.92 480.39 5.92 480.39 286.12 578.99 274.83 578.99 5.92"/><polygon class="cls-1" points="480.39 694.2 578.99 694.2 578.99 425.17 480.39 413.88 480.39 694.2"/><polygon class="cls-2" points="480.39 286.12 480.39 413.88 578.99 425.17 578.99 274.83 480.39 286.12"/><path class="cls-1" d="m856.91,221.98c-.97-9.34-1.45-20.78-1.45-34.32,0-11.6.97-22.72,2.9-33.35,1.94-10.63,5.32-19.97,10.15-28.03,4.83-8.05,11.6-14.65,20.3-19.82,8.7-5.15,19.82-7.73,33.35-7.73,25.13,0,43.02,8.22,53.65,24.65,10.64,16.43,15.95,35.93,15.95,58.49v22.23h98.6v-48.33c0-19.33-3.87-38.19-11.6-56.55-7.73-18.36-18.85-34.95-33.35-49.78-14.5-14.82-31.9-26.74-52.2-35.77C972.91,4.63,950.51.12,926.03.12c-28.37,0-53.17,5-74.44,14.98-21.27,10-38.84,23.37-52.69,40.12-13.86,16.77-24.33,36.73-31.41,59.94-7.1,23.2-10.64,47.7-10.64,73.47,0,23.94,2.31,45.58,6.77,65.06l98.68-11.3c-2.76-5.94-4.6-12.71-5.39-20.41Z"/><path class="cls-1" d="m991.76,498.93c0,15.47-.65,29.65-1.94,42.54-1.3,12.9-4.35,23.68-9.18,32.38s-11.93,15.47-21.27,20.3c-9.35,4.83-22.4,7.25-39.15,7.25-25.13,0-43.02-7.25-53.65-21.75-10.63-14.5-15.95-30.77-15.95-48.82v-30.94h-98.6v36.73c0,23.2,4.35,44.8,13.05,64.77,8.7,19.98,20.45,37.22,35.28,51.72,14.82,14.5,32.53,25.95,53.17,34.32,20.62,8.37,42.85,12.57,66.7,12.57,31.57,0,58.32-5.17,80.24-15.47,21.9-10.3,39.47-24.32,52.68-42.05,13.2-17.72,22.72-38.99,28.52-63.8,5.8-24.81,8.7-51.72,8.7-80.72,0-4.89-.09-9.58-.19-14.26l-99.01-11.34c.38,7.93.6,16.72.6,26.56Z"/><path class="cls-2" d="m1071.51,378.58c-7.42-15.14-17.89-28.35-31.42-39.64-13.54-11.27-31.27-21.1-53.17-29.48l-75.4-29.97c-12.9-5.15-23.05-10.3-30.45-15.46-7.42-5.15-13.05-11.12-16.92-17.89-.68-1.19-1.26-2.48-1.86-3.76l-98.68,11.3c3.58,15.66,8.52,29.95,14.98,42.73,14.5,28.68,43.02,51.72,85.55,69.12l70.57,29c12.23,5.16,22.07,10,29.48,14.5,7.4,4.52,13.2,10.32,17.4,17.4,4.18,7.1,6.92,16.43,8.22,28.03.58,5.27,1.02,11.3,1.34,17.91l99.01,11.34c-.41-19.39-1.61-37.09-3.68-52.93-2.58-19.65-7.58-37.05-14.98-52.2Z"/><polygon class="cls-1" points="1263.39 694.2 1362 694.2 1362 514.83 1263.39 503.54 1263.39 694.2"/><polygon class="cls-1" points="1362 5.92 1263.39 5.92 1263.39 196.46 1362 185.17 1362 5.92"/><polygon class="cls-2" points="1263.39 196.46 1263.39 503.54 1362 514.83 1362 185.17 1263.39 196.46"/><path class="cls-1" d="m1666.98,115.64c13.2-11.27,28.83-16.92,46.88-16.92s33.67,5.65,46.88,16.92c6.73,5.75,11.72,13.14,15.02,22.15l99.15-11.35c-2.4-11.2-5.79-21.75-10.25-31.58-9.67-21.27-22.4-38.82-38.18-52.69-15.8-13.85-33.52-24.32-53.17-31.42-19.67-7.08-39.48-10.63-59.45-10.63s-39.8,3.55-59.45,10.63c-19.67,7.1-37.38,17.57-53.17,31.42-15.8,13.87-28.52,31.42-38.18,52.69-9.14,20.09-13.9,43.1-14.4,68.94l99.66-11.41c2.4-15.88,8.6-28.15,18.67-36.74Z"/><path class="cls-1" d="m1760.75,584.48c-13.22,11.28-28.85,16.92-46.88,16.92s-33.69-5.63-46.88-16.92c-10.09-8.61-16.3-20.92-18.68-36.87l-99.65-11.41c.48,26.5,5.25,49.71,14.41,69.54,9.66,20.95,22.38,38.35,38.18,52.2,15.79,13.87,33.5,24.33,53.17,31.41,19.65,7.09,39.47,10.63,59.45,10.63s39.78-3.55,59.45-10.63c19.65-7.08,37.37-17.55,53.17-31.41,15.78-13.85,28.51-31.26,38.18-52.2,4.56-9.88,8.01-20.62,10.42-32.16l-99.28-11.37c-3.3,9.06-8.31,16.5-15.06,22.27Z"/><path class="cls-2" d="m1879.17,168.32c0-14.9-1.45-28.84-4.24-41.89l-99.15,11.35c3.18,8.67,4.8,18.84,4.8,30.53v363.47c0,11.65-1.6,21.77-4.76,30.42l99.28,11.37c2.69-12.9,4.08-26.81,4.08-41.79V168.32Z"/><path class="cls-2" d="m1647.16,531.8V168.32c0-5.68.4-10.97,1.15-15.94l-99.66,11.41c-.03,1.51-.1,3-.1,4.53v363.47c0,1.49.07,2.94.1,4.41l99.65,11.41c-.74-4.93-1.14-10.19-1.14-15.82Z"/><polygon class="cls-1" points="2310.31 694.2 2403.11 694.2 2403.11 634.05 2283.39 620.34 2310.31 694.2"/><polygon class="cls-1" points="2058.97 694.2 2157.57 694.2 2157.57 605.93 2058.97 594.64 2058.97 694.2"/><polygon class="cls-1" points="2403.11 5.92 2304.5 5.92 2304.5 77.24 2403.11 65.95 2403.11 5.92"/><polygon class="cls-1" points="2153.7 5.92 2058.97 5.92 2058.97 105.36 2184.25 91.01 2153.7 5.92"/><polygon class="cls-2" points="2304.5 77.24 2304.5 420.63 2302.57 420.63 2184.25 91.01 2058.97 105.36 2058.97 594.64 2157.57 605.93 2157.57 280.46 2159.5 280.46 2283.39 620.34 2403.11 634.05 2403.11 65.95 2304.5 77.24"/><path class="cls-1" d="m275.92,47.85c-14.18-14.5-30.78-26.1-49.78-34.8C207.12,4.35,186.65,0,164.75,0c-18.7,0-37.7,2.58-57.03,7.73-19.33,5.15-36.73,14.02-52.2,26.59-15.47,12.57-28.2,29.15-38.19,49.78-10,20.62-14.98,46.72-14.98,78.3v375.2c0,31.58,4.98,57.68,14.98,78.3,9.99,20.63,22.72,37.22,38.19,49.78,15.47,12.57,32.87,21.43,52.2,26.59,19.33,5.15,38.34,7.73,57.03,7.73,21.9,0,42.37-4.35,61.38-13.05,19-8.7,35.6-20.3,49.78-34.8,14.17-14.5,25.28-31.41,33.35-50.75,8.05-19.33,12.08-39.64,12.08-60.9v-68.13l-99.67-11.03v30.18c0,20.24.3,66.34-11.23,84.54-2.84,4.49-6.12,8.46-9.92,11.93-5.76,4.57-12.03,7.95-18.87,10.03-5.45,1.66-10.64,2.7-15.56,3.13-1.48.1-2.97.19-4.53.22-.23,0-.47.03-.69.03-22.56,0-38.18-6.77-46.88-20.3-8.7-13.53-13.05-30.28-13.05-50.26V169.17c0-19.98,4.35-36.73,13.05-50.26,8.7-13.54,24.32-20.3,46.88-20.3.23,0,.47.03.69.03,1.56.03,3.06.12,4.53.22,4.92.44,10.11,1.47,15.56,3.13,6.84,2.08,13.12,5.46,18.87,10.03,3.8,3.47,7.08,7.44,9.92,11.93,11.52,18.19,11.23,64.3,11.23,84.54v30.18l99.52-12.44.14-66.71c0-21.27-4.03-41.57-12.08-60.9-8.07-19.33-19.18-36.25-33.35-50.75Z"/><path class="cls-1" d="m2452.41,40.41c0-4.76.9-9.24,2.72-13.43,1.81-4.19,4.27-7.84,7.39-10.95,3.11-3.11,6.76-5.57,10.95-7.38,4.2-1.81,8.67-2.72,13.43-2.72s9.24.91,13.43,2.72c4.19,1.81,7.84,4.27,10.95,7.38,3.12,3.11,5.57,6.76,7.39,10.95,1.81,4.2,2.72,8.67,2.72,13.43s-.9,9.24-2.72,13.43c-1.81,4.19-4.27,7.84-7.39,10.95-3.11,3.11-6.76,5.57-10.95,7.38-4.2,1.81-8.67,2.72-13.43,2.72s-9.24-.91-13.43-2.72c-4.19-1.81-7.84-4.27-10.95-7.38-3.12-3.11-5.57-6.76-7.39-10.95-1.81-4.19-2.72-8.67-2.72-13.43Zm62.12,0c0-3.87-.73-7.53-2.2-10.95-1.46-3.43-3.43-6.41-5.91-8.95s-5.4-4.56-8.76-6.05c-3.37-1.49-6.95-2.24-10.76-2.24s-7.4.75-10.76,2.24c-3.37,1.49-6.29,3.51-8.76,6.05s-4.45,5.53-5.91,8.95c-1.46,3.43-2.2,7.08-2.2,10.95s.73,7.53,2.2,10.95c1.46,3.43,3.43,6.42,5.91,8.95,2.47,2.54,5.4,4.56,8.76,6.05,3.37,1.49,6.95,2.24,10.76,2.24s7.4-.74,10.76-2.24c3.37-1.49,6.29-3.51,8.76-6.05,2.47-2.54,4.45-5.52,5.91-8.95,1.46-3.43,2.2-7.08,2.2-10.95Zm-40.68-20.1h15.25c9.2,0,13.81,3.78,13.81,11.34,0,1.91-.27,3.53-.81,4.86-.54,1.34-1.28,2.45-2.23,3.34-.96.89-2.06,1.57-3.29,2.05-1.24.47-2.56.81-3.95,1l11.53,17.62h-7.62l-11.53-17.43h-4.86v17.43h-6.29V20.31Zm6.29,17.05h7.15c3.11,0,5.44-.46,7.01-1.38,1.55-.92,2.33-2.46,2.33-4.62,0-1.84-.68-3.2-2.05-4.05-1.37-.86-3.13-1.28-5.28-1.28h-9.15v11.34Z"/></svg>
