<svg version="1.1" id="Calque_1" xmlns="http://www.w3.org/2000/svg" xmlns:xlink="http://www.w3.org/1999/xlink" x="0px" y="0px" style="enable-background:new 0 0 210 42;" xml:space="preserve" viewBox="0 0 184.35 42.02">
<desc>Created with sketchtool.</desc>
<g>
	<g>
		<path d="M9.5980339,18.8092804l1.9125748,0.382616c4.799017,0.973608,6.8855801,3.0601692,6.8855801,6.8855705    c0,4.6250248-3.4078913,7.0941944-9.7371216,7.0941944H0.1737317v-4.8685513    C2.95573,28.8594589,5.8770695,29.172533,8.3113499,29.172533c3.6514196,0,5.4944525-0.9738655,5.4944525-2.8864365    s-0.9389658-2.5387192-5.0076475-3.3385944l-1.9125757-0.3823643C2.1212068,21.6261749,0,19.5047169,0,15.6795712    c0-4.3122053,3.4774337-6.8509254,9.3894024-6.8509254h7.5810146v4.8685541    c-2.6775551-0.5912466-4.9381027-0.869421-7.2332973-0.869421c-3.2688026,0-5.1467338,1.0085068-5.1467338,2.7473488    C4.5903859,17.3486156,5.5988951,18.0094051,9.5980339,18.8092804z M42.3911934,21.0001564v12.171505h-7.7546692    c-8.8330517,0-13.9797878-4.4512901-13.9797878-12.1713791c0-7.7203436,5.1467361-12.1716366,13.9797878-12.1716366h6.0161552    v4.7294655c-2.0516624-0.486804-4.2426643-0.7303333-6.2943306-0.7303333c-5.7033367,0-9.0067844,3.0255241-9.0067844,8.1725025    c0,5.0076408,3.3383465,7.9982662,9.0067844,7.9982662h3.6863213l-0.0000763-7.9983902H42.3911934z"/>
	</g>
	<rect x="52.6744461" y="0.0000336" style="fill: rgb(230, 0, 40); --darkreader-inline-fill: #ff2b50;" width="42.0002365" height="18.9000759" data-darkreader-inline-fill=""/>
	<rect x="52.6744804" y="23.0999565" width="42.000206" height="18.9000759"/>
	<rect x="52.6744461" y="18.9000263" style="fill: rgb(255, 255, 255); --darkreader-inline-fill: #e8e6e3;" width="42.0002365" height="4.2000189" data-darkreader-inline-fill=""/>
</g>
<g>
	<g>
		<path d="M109.0855103,12.9541721l0.7856979,0.1569939c1.9577103,0.3856106,2.8294983,1.2429247,2.8294983,2.80056    c0,1.9859314-1.4006424,3.057394-4.0008011,3.057394c-1.2718658,0-2.5437241-0.1569939-3.486412-0.428297v-1.7146282    c1.2429199,0.3284569,2.3860092,0.4999199,3.3431625,0.4999199c1.5721054,0,2.3151169-0.428297,2.3151169-1.3427649    c0-0.8146296-0.3574066-1.0432472-2.1147156-1.3861723l-0.7864151-0.1569939    c-1.9569855-0.3863335-2.8287735-1.2429247-2.8287735-2.80056c0-1.8860922,1.4433212-2.9582777,4.0008011-2.9582777    c1.1575546,0,2.1863327,0.1005621,2.972023,0.3002415v1.7146282c-0.9860916-0.2286167-2.0430832-0.3711405-2.8287811-0.3711405    c-1.4860077,0-2.3151016,0.4427652-2.3151016,1.2429256C106.9708099,12.3826294,107.3282013,12.6112461,109.0855103,12.9541721z"/>
		<path d="M119.2857513,8.6813459c3.2860031,0,5.3724976,2.0011244,5.3724976,5.1438866    c0,3.1442099-2.0864944,5.1438875-5.3724976,5.1438875c-3.2867355,0-5.3725128-1.9996777-5.3725128-5.1438875    C113.9132385,10.6824703,115.9990158,8.6813459,119.2857513,8.6813459z M119.2857513,10.3250751    c-2.1581192,0-3.5153503,1.357233-3.5153503,3.5001574c0,2.1436481,1.3572311,3.5008821,3.5153503,3.5008821    c2.1573868,0,3.5146255-1.357234,3.5146255-3.5008821C122.8003769,11.6823082,121.4431381,10.3250751,119.2857513,10.3250751z"/>
		<path d="M126.0994034,13.8252325c0-3.1717014,2.1002426-5.1438866,5.486824-5.1438866    c0.8999939,0,1.7710419,0.0860939,2.7289276,0.257556v1.6719437c-0.9860992-0.2004013-1.7290955-0.2857704-2.5864105-0.2857704    c-2.3722687,0-3.7721786,1.3000793-3.7721786,3.5001574c0,2.2008028,1.39991,3.5008821,3.7721786,3.5008821    c0.8573151,0,1.6003113-0.085371,2.6573181-0.3002415v1.6719437c-1.0287933,0.1859322-1.8998413,0.2713032-2.7998352,0.2713032    C128.199646,18.96912,126.0994034,16.9976578,126.0994034,13.8252325z"/>
		<path d="M138.2465057,18.8265953h-1.8578796V8.8245935h1.8578796V18.8265953z"/>
		<path d="M140.7583923,8.8245935h7.344696v1.6856899h-5.4868164v2.1718636h4.0572357v1.6864138h-4.0572357v2.7716217h5.6293335    v1.6864128h-7.4872131V8.8245935z"/>
		<path d="M149.6129761,8.8245935h8.6874542v1.6856899h-3.4147949v8.3163118h-1.8578644v-8.3163118h-3.4147949V8.8245935z"/>
		<path d="M159.9434357,8.8245935h7.3446808v1.6856899h-5.4868011v2.1718636h4.0572205v1.6864138h-4.0572205v2.7716217h5.6293182    v1.6864128h-7.4871979V8.8245935z"/>
	</g>
	<g>
		<path d="M114.1809311,28.127552v4.6866531c-1.1575546,0.3291817-2.457634,0.4999161-3.728775,0.4999161    c-3.3865738,0-5.4868164-1.9714584-5.4868164-5.1438828c0-3.1717033,2.1002426-5.1438866,5.4868164-5.1438866    c0.9853745,0,2.1429138,0.1287766,3.0147018,0.3291798v1.6719418c-0.9571533-0.2286167-1.9721756-0.3573952-2.8721771-0.3573952    c-2.3722687,0-3.7721863,1.3000793-3.7721863,3.5001602c0,2.2008018,1.3999176,3.5008812,3.7721863,3.5008812    c0.5860062,0,1.1857681-0.0426846,1.8007126-0.1425266v-3.401041H114.1809311z"/>
		<path d="M116.410675,23.1695976h7.3446808v1.6856918h-5.4868088v2.1718616h4.0572281v1.6864128h-4.0572281v2.7716217h5.6293411    v1.6864147h-7.4872131V23.1695976z"/>
		<path d="M127.7539902,26.5843849v6.5872154h-1.8289413V23.1695976h1.1430817l5.8869019,6.5872154v-6.5872154h1.8289337v10.0020027    h-1.1430817L127.7539902,26.5843849z"/>
		<path d="M137.3291473,23.1695976h7.344696v1.6856918h-5.4868317v2.1718616h4.0572357v1.6864128h-4.0572357v2.7716217h5.6293488    v1.6864147h-7.4872131V23.1695976z"/>
		<path d="M146.8435211,23.1695976h4.4153595c2.3288574,0,3.6578674,1.0714626,3.6578674,2.9720249    c0,1.3861713-0.6858521,2.2861691-1.9721832,2.6580334l2.4720917,4.3719444h-2.0293274l-2.2282867-4.0579548h-2.4583588v4.0579548    h-1.8571625V23.1695976z M148.7006836,24.8126049v2.6580353h2.558197c1.1857605,0,1.8000031-0.4434891,1.8000031-1.3290176    c0-0.8855305-0.6142426-1.3290176-1.8000031-1.3290176H148.7006836z"/>
		<path d="M163.7257538,31.2428246h-4.5151978l-0.8428497,1.9287758h-1.8868103l4.4298096-10.0020027h1.1430969    l4.4298248,10.0020027h-1.9150391L163.7257538,31.2428246z M163.0398865,29.6425018l-1.5720978-3.6151867l-1.5713806,3.6151867    H163.0398865z"/>
		<path d="M175.1160889,33.1716003h-7.058197V23.1695976h1.8578796v8.315588h5.2003174V33.1716003z"/>
		<path d="M176.8343353,23.1695976h7.3439636v1.6856918h-5.4868164v2.1718616h4.0586853v1.6864128h-4.0586853v2.7716217h5.6300659    v1.6864147h-7.4872131V23.1695976z"/>
	</g>
</g>
</svg>