<svg width="205" height="48" viewBox="0 0 205 48" fill="none" xmlns="http://www.w3.org/2000/svg">
<path d="M131.107 14.6084V26.1306C131.107 28.6988 129.918 30.6146 125.637 30.6146C121.356 30.6146 120.507 28.6988 120.507 26.1306V14.6084H117.13V26.1306C117.13 30.8645 119.728 33.391 125.568 33.391C131.408 33.391 134.404 30.8645 134.404 26.1306V14.6084H131.107Z" fill="#1E2B51"/>
<path d="M169.392 33.391H165.969V17.4873H158.842V14.6084H176.959V17.4873H169.392V33.391Z" fill="#1E2B51"/>
<path d="M184.121 14.6084H180.751V33.391H184.121V14.6084Z" fill="#1E2B51"/>
<path d="M195.931 33.2386C191.972 33.2386 187.647 32.8369 187.647 32.8369L187.788 30.0666C190.49 30.3952 193.209 30.58 195.931 30.6208C199.54 30.6208 200.944 29.7758 200.902 27.7396C200.902 26.4514 199.217 25.9389 195.286 25.3987C188.882 24.4984 187.492 23.044 187.492 19.7612C187.492 15.3841 191.382 14.6084 196.395 14.6084C198.613 14.6118 200.827 14.8158 203.009 15.2179L202.938 17.7943C200.679 17.4614 198.397 17.3039 196.114 17.3233C192.898 17.3233 190.89 17.905 190.89 19.7057C190.89 21.5064 192.14 21.8943 196.057 22.476C201.675 23.2518 204.258 24.4152 204.342 27.8504C204.469 32.366 200.846 33.391 195.917 33.391" fill="#1E2B51"/>
<path d="M115.023 33.391H107.826C102.695 33.391 100.698 31.6363 100.698 27.1302V14.6084H104.054V27.2424C104.054 30.3869 105.039 30.6677 107.826 30.6958H115.023V33.391Z" fill="#1E2B51"/>
<path d="M97.327 23.9997C97.327 30.5544 94.1186 33.391 87.6439 33.391C81.1694 33.391 77.9463 30.5544 77.9463 23.9997C77.9463 17.4451 81.2395 14.6084 87.6439 14.6084C94.0479 14.6084 97.327 17.4451 97.327 23.9997ZM87.6439 17.6104C83.2295 17.6104 81.3377 19.5382 81.3377 23.9997C81.3377 28.4613 83.2295 30.3891 87.6439 30.3891C92.0579 30.3891 93.936 28.4613 93.936 23.9997C93.936 19.5382 92.0445 17.6104 87.6439 17.6104Z" fill="#1E2B51"/>
<path d="M73.8195 14.6084C71.0018 24.6695 66.7752 30.6172 66.3667 30.6172C65.9581 30.6172 61.6751 24.6695 58.8996 14.6084H55.1943C58.632 26.3648 62.7741 31.5622 62.7741 31.5622C63.087 32.15 63.5668 32.6352 64.1548 32.9584C64.7427 33.2817 65.4134 33.4291 66.0849 33.3826H66.6343C67.3058 33.4291 67.9765 33.2817 68.5644 32.9584C69.1523 32.6352 69.6322 32.15 69.9451 31.5622C69.9451 31.5622 74.0872 26.2954 77.5248 14.6084H73.8195Z" fill="#1E2B51"/>
<path d="M148.171 14.6784H138.617V33.391H142.042V17.4754H148.525C151.965 17.4754 153.351 19.0838 153.351 21.9648V33.391H156.734V21.4893C156.734 17.1538 155.545 14.6084 148.241 14.6084" fill="#1E2B51"/>
<mask id="mask0" mask-type="alpha" maskUnits="userSpaceOnUse" x="0" y="0" width="49" height="48">
<path d="M41.5035 6.96292C36.8918 2.49987 30.6916 0 24.234 0C17.7764 0 11.5761 2.49987 6.96451 6.96292C2.46691 11.5333 -0.0338307 17.6643 0.000345748 24.0365C0.0345223 30.4089 2.60089 36.5132 7.14726 41.0364C11.7227 45.498 17.8945 48 24.3254 48C30.7562 48 36.928 45.498 41.5035 41.0364C46.0238 36.4832 48.5557 30.3615 48.5557 23.9858C48.5557 17.61 46.0238 11.4884 41.5035 6.93516" fill="white"/>
</mask>
<g mask="url(#mask0)">
<path d="M41.5035 6.96292C36.8918 2.49987 30.6916 0 24.234 0C17.7764 0 11.5761 2.49987 6.96451 6.96292C2.46691 11.5333 -0.0338307 17.6643 0.000345748 24.0365C0.0345223 30.4089 2.60089 36.5132 7.14726 41.0364C11.7227 45.498 17.8945 48 24.3254 48C30.7562 48 36.928 45.498 41.5035 41.0364C46.0238 36.4832 48.5557 30.3615 48.5557 23.9858C48.5557 17.61 46.0238 11.4884 41.5035 6.93516" fill="white"/>
<path d="M6.89398 41.4916C15.4644 49.964 28.7486 50.9524 38.4618 44.457C33.748 34.7138 29.6057 29.9128 29.6057 29.9128C26.7488 35.4198 23.892 37.5379 23.892 37.5379C22.4636 34.7138 20.4639 32.1721 18.4641 30.054C16.3215 28.0771 13.7503 25.959 10.8935 24.6882C10.8935 24.6882 13.0361 21.8641 18.6069 19.0399C18.6069 19.0399 13.7503 14.8037 3.89432 10.2852C-2.67635 19.8872 -1.67647 33.0193 6.89398 41.4916Z" fill="url(#paint0_radial)"/>
<path d="M25.0487 15.7429C26.6156 15.3485 28.8094 14.8132 29.7354 15.7429C30.6613 16.6726 30.761 16.743 30.932 16.9261L32.1428 18.1095C33.0687 19.0392 32.5417 21.1945 32.1428 22.7441C32.1428 22.7441 38.5247 29.0832 40.7896 41.691C41.1885 41.3389 41.5874 40.9726 41.972 40.5923C46.4578 35.9719 48.9328 29.7965 48.8656 23.3917C48.7982 16.987 46.1942 10.8637 41.6124 6.33653C37.0305 1.80931 30.8363 -0.760844 24.3596 -0.822121C17.8829 -0.883397 11.6401 1.56909 6.97148 6.00879C6.58686 6.40323 6.21649 6.79766 5.86035 7.20618C18.6384 9.43192 25.0487 15.7429 25.0487 15.7429Z" fill="#003C77"/>
<path d="M38.4931 12.4697C38.4879 12.9976 38.3252 13.5121 38.0253 13.9481C37.7254 14.384 37.3019 14.7218 36.8086 14.9186C36.3152 15.1153 35.7741 15.1622 35.2539 15.0533C34.7336 14.9445 34.2576 14.6847 33.8861 14.307C33.5147 13.9293 33.2645 13.4505 33.1673 12.9315C33.0701 12.4125 33.1303 11.8765 33.3401 11.3914C33.55 10.9063 33.9002 10.494 34.3462 10.2068C34.7923 9.91948 35.3142 9.77006 35.8459 9.77762C36.5559 9.78766 37.2331 10.0766 37.7292 10.581C38.2253 11.0855 38.4999 11.7646 38.4931 12.4697Z" fill="#FFC000"/>
</g>
<defs>
<radialGradient id="paint0_radial" cx="0" cy="0" r="1" gradientUnits="userSpaceOnUse" gradientTransform="translate(11.4787 24.4795) rotate(72.5195) scale(22.8615 23.0787)">
<stop stop-color="#8DBAE7"/>
<stop offset="1" stop-color="#4A8CCB"/>
</radialGradient>
</defs>
</svg>
