<svg version="1.0" xmlns="http://www.w3.org/2000/svg"
 width="142.000000pt" height="86.000000pt" viewBox="0 0 142.000000 86.000000"
 preserveAspectRatio="xMidYMid meet">
<g transform="translate(0.000000,86.000000) scale(0.100000,-0.100000)"
fill="#ee7796" stroke="none">
<path d="M365 766 c-148 -47 -225 -166 -225 -346 0 -157 62 -272 172 -320 65
-28 170 -35 253 -18 55 12 60 15 63 41 3 26 1 28 -20 21 -129 -41 -245 -29
-317 32 -49 43 -77 100 -91 187 -26 168 49 314 184 357 50 16 171 8 214 -14
32 -17 32 -17 42 10 6 15 9 28 7 30 -1 2 -29 10 -62 19 -70 18 -165 19 -220 1z"/>
<path d="M760 535 c0 -129 5 -256 11 -284 24 -112 109 -176 234 -176 94 0 156
20 201 63 65 63 68 77 72 370 l4 262 -29 0 -28 0 0 -238 c0 -130 -4 -254 -8
-274 -39 -182 -355 -182 -394 0 -4 20 -8 144 -8 275 l0 237 -27 0 -28 0 0
-235z"/>
</g>
</svg>
