<svg width="312" height="312" xmlns="http://www.w3.org/2000/svg" xmlns:xlink="http://www.w3.org/1999/xlink" xml:space="preserve" overflow="hidden"><defs><clipPath id="clip0"><rect x="484" y="204" width="312" height="312"/></clipPath><clipPath id="clip1"><rect x="485" y="205" width="310" height="310"/></clipPath><clipPath id="clip2"><rect x="485" y="205" width="310" height="310"/></clipPath></defs><g clip-path="url(#clip0)" transform="translate(-484 -204)"><g clip-path="url(#clip1)"><g clip-path="url(#clip2)"><path d="M742.954 315.398C735.138 309.471 736.506 342.321 693.363 347.368 673.574 349.682 656.792 346.09 642.603 341.324 658.128 331.102 668.386 313.544 668.386 293.57 668.386 262 642.796 236.405 611.223 236.405 583.666 236.405 560.679 255.901 555.27 281.848 534.714 277.527 518.065 273.677 518.065 291.314 518.065 307.708 542.481 324.037 568.445 333.887 541.416 345.956 522.565 373.054 522.565 404.568 522.565 447.306 557.448 477.512 599.954 481.954 660.308 488.263 731.907 477.927 758.944 423.634 778.283 384.801 769.596 335.59 742.954 315.398Z" fill="#5C44E4"/><path d="M881.298 381.42 903.432 381.42 892.404 355.403ZM871.047 403.554 870.891 403.476C868.095 409.845 865.222 416.136 862.348 422.504L835.399 422.504 892.171 295.292 949.098 422.504 922.072 422.504C919.276 416.213 916.48 409.845 913.684 403.554L871.047 403.554ZM932.245 297.623 960.67 297.623 982.26 337.309 1003.85 297.623 1032.35 297.623 994.763 366.665 994.763 422.816 969.756 422.816 969.756 366.665ZM1086.17 297.003 1086.1 297.313C1094.8 297.313 1102.95 298.944 1110.64 302.284 1118.33 305.623 1125.08 310.128 1130.91 315.797L1113.05 333.66C1105.51 326.204 1096.58 322.476 1086.25 322.476 1075.77 322.476 1066.83 326.203 1059.46 333.66 1052.08 341.116 1048.35 350.046 1048.35 360.453 1048.35 370.938 1052.08 379.869 1059.46 387.247 1066.84 394.624 1075.77 398.353 1086.25 398.353 1096.73 398.353 1105.67 394.625 1113.12 387.169L1130.98 405.031C1125.16 410.779 1118.4 415.283 1110.72 418.623 1103.03 421.962 1094.87 423.593 1086.17 423.593 1068.78 423.593 1053.87 417.38 1041.52 405.031 1029.17 392.683 1022.96 377.772 1022.96 360.375 1022.96 342.979 1029.17 328.067 1041.52 315.641 1053.87 303.215 1068.78 297.001 1086.17 297.001ZM1180.38 381.42 1202.51 381.42 1191.49 355.403ZM1170.13 403.554 1169.97 403.476C1167.18 409.845 1164.3 416.136 1161.43 422.504L1134.48 422.504 1191.25 295.292 1248.18 422.504 1221.15 422.504C1218.36 416.213 1215.56 409.845 1212.77 403.554L1170.13 403.554ZM1257.73 295.293 1332.83 366.82 1332.83 297.622 1357.92 297.622 1357.92 425.144 1282.82 353.539 1282.82 422.814 1257.73 422.814 1257.73 295.292ZM1401.18 297.933 1401.18 297.855C1418.34 297.855 1434.57 303.991 1446.84 316.262 1469.21 338.629 1469.21 382.198 1446.84 404.49 1434.57 416.683 1418.34 422.818 1401.18 422.818L1370.27 422.818 1370.27 297.936 1401.18 297.936ZM1401.26 397.73 1401.33 397.73C1411.58 397.73 1421.06 394.856 1428.36 387.556 1435.66 380.255 1438.53 370.625 1438.53 360.296 1438.53 350.044 1435.66 340.414 1428.28 333.036 1420.98 325.658 1411.35 322.785 1401.1 322.785L1395.35 322.785 1395.35 397.73 1401.25 397.73ZM1533.05 297.003C1550.45 297.003 1565.36 303.216 1577.78 315.642 1590.21 328.069 1596.42 342.98 1596.42 360.376 1596.42 377.773 1590.21 392.684 1577.78 405.033 1565.36 417.381 1550.45 423.594 1533.05 423.594 1515.65 423.594 1500.74 417.381 1488.39 405.033 1476.05 392.684 1469.83 377.773 1469.83 360.376 1469.83 342.98 1476.05 328.068 1488.39 315.642 1500.74 303.216 1515.65 297.003 1533.05 297.003ZM1533.05 322.245C1522.56 322.245 1513.63 325.972 1506.26 333.428 1498.88 340.885 1495.15 349.815 1495.15 360.222 1495.15 370.707 1498.88 379.638 1506.26 387.016 1513.63 394.393 1522.56 398.122 1533.05 398.122 1543.46 398.122 1552.39 394.394 1559.84 387.016 1567.3 379.637 1571.03 370.706 1571.03 360.222 1571.03 349.815 1567.3 340.884 1559.84 333.428 1552.39 325.973 1543.46 322.245 1533.05 322.245ZM1665.7 297.003C1683.09 297.003 1698.01 303.216 1710.43 315.642 1722.86 328.069 1729.07 342.98 1729.07 360.376 1729.07 377.773 1722.86 392.684 1710.43 405.033 1698.01 417.381 1683.09 423.594 1665.7 423.594 1648.3 423.594 1633.39 417.381 1621.04 405.033 1608.69 392.684 1602.48 377.773 1602.48 360.376 1602.48 342.98 1608.69 328.068 1621.04 315.642 1633.39 303.216 1648.3 297.003 1665.7 297.003ZM1665.7 322.245C1655.21 322.245 1646.28 325.972 1638.91 333.428 1631.53 340.885 1627.8 349.815 1627.8 360.222 1627.8 370.707 1631.53 379.638 1638.91 387.016 1646.28 394.393 1655.22 398.122 1665.7 398.122 1676.11 398.122 1685.04 394.394 1692.49 387.016 1699.95 379.637 1703.68 370.706 1703.68 360.222 1703.68 349.815 1699.95 340.884 1692.49 333.428 1685.04 325.973 1676.11 322.245 1665.7 322.245Z" fill="#5C44E4"/></g></g></g></svg>